<?xml version="1.0" encoding="utf-8"?>
<!-- Generator: Adobe Illustrator 25.0.0, SVG Export Plug-In . SVG Version: 6.00 Build 0)  -->
<svg version="1.1" id="Layer_1" xmlns="http://www.w3.org/2000/svg" xmlns:xlink="http://www.w3.org/1999/xlink" x="0px" y="0px"
	 viewBox="0 0 2048 2048" style="enable-background:new 0 0 2048 2048;" xml:space="preserve">
<style type="text/css">
	.st0{stroke:#000000;stroke-width:81.73;stroke-linecap:square;}
</style>
<g id="document_1_" transform="matrix(1,0,0,1,1024.0,1024.0)">
	<path class="st0" d="M-461.9,369.6L-577.4,485c318.7,318.7,836.1,318.7,1154.9,0L461.9,369.6C206.7,624.8-206.7,624.8-461.9,369.6z
		"/>
	<path d="M150.8-35.2L150.8-35.2c-35,74-124.1,105.9-198,70.9c-23.7-11.2-43-27.9-57.2-48l0.1,0l-0.1-0.1c-4.3-6-8.1-12.2-11.3-18.6
		c-0.2-0.4-0.4-0.7-0.5-1.1c-0.1-0.3-0.3-0.6-0.4-0.9c-4.9-9.9-8.6-20.3-11.2-31c-13.7-57.1,7.3-119.7,57.8-155.9
		c66.5-47.6,159.8-32.2,207.4,34.3L379-358.6C235.3-559.2-42.6-605.2-243.2-461.5c-106.7,76.4-169.7,190.9-183.6,311.4
		C-448.4,34.8-352,220.3-174.2,304.4C48.8,409.9,314.1,315,419.6,91.9l0-0.1L150.8-35.2z"/>
</g>
</svg>
