<?xml version="1.0" encoding="utf-8"?>
<!-- Generator: Adobe Illustrator 25.0.0, SVG Export Plug-In . SVG Version: 6.00 Build 0)  -->
<svg version="1.1" id="Layer_1" xmlns="http://www.w3.org/2000/svg" xmlns:xlink="http://www.w3.org/1999/xlink" x="0px" y="0px"
	 viewBox="0 0 2048 2048" style="enable-background:new 0 0 2048 2048;" xml:space="preserve">
<style type="text/css">
	.st0{fill:#FFFFFF;stroke:#FFFFFF;stroke-width:81.73;stroke-linecap:square;}
	.st1{fill:#FFFFFF;}
</style>
<g id="document_1_" transform="matrix(1,0,0,1,1024.0,1024.0)">
	<path class="st0" d="M-461.9,368.6l-115.5,115.5c318.7,318.7,836.1,318.7,1154.9,0L461.9,368.6
		C206.7,623.8-206.7,623.8-461.9,368.6z"/>
	<path class="st1" d="M150.8-36.2L150.8-36.2c-35,74-124.1,105.9-198,70.9c-23.7-11.2-43-27.9-57.2-48l0.1,0l-0.1-0.1
		c-4.3-6-8.1-12.2-11.3-18.6c-0.2-0.4-0.4-0.7-0.5-1.1c-0.1-0.3-0.3-0.6-0.4-0.9c-4.9-9.9-8.6-20.3-11.2-31
		c-13.7-57.1,7.3-119.7,57.8-155.9c66.5-47.6,159.8-32.2,207.4,34.3L379-359.6C235.3-560.2-42.6-606.2-243.2-462.5
		C-349.9-386-412.9-271.6-426.8-151C-448.4,33.8-352,219.4-174.2,303.5C48.8,409,314.1,314,419.6,91l0-0.1L150.8-36.2z"/>
</g>
</svg>
